<svg width="55" height="14" viewBox="0 0 55 14" fill="none" xmlns="http://www.w3.org/2000/svg">
<path d="M2.952 3.56H0.18V2.42H7.056V3.56H4.284V11H2.952V3.56ZM11.0111 11.168C10.2031 11.168 9.50713 10.98 8.92313 10.604C8.34713 10.22 7.90713 9.692 7.60313 9.02C7.29913 8.348 7.14713 7.576 7.14713 6.704C7.14713 5.848 7.31113 5.084 7.63913 4.412C7.97513 3.732 8.44713 3.204 9.05513 2.828C9.66313 2.444 10.3671 2.252 11.1671 2.252C11.8871 2.252 12.5031 2.372 13.0151 2.612C13.5351 2.844 13.9431 3.172 14.2391 3.596C14.5431 4.02 14.7431 4.512 14.8391 5.072H13.4591C13.3471 4.52 13.0951 4.104 12.7031 3.824C12.3111 3.536 11.7951 3.392 11.1551 3.392C10.5631 3.392 10.0671 3.552 9.66713 3.872C9.27513 4.184 8.98713 4.592 8.80313 5.096C8.61913 5.592 8.52713 6.128 8.52713 6.704C8.52713 7.304 8.60313 7.852 8.75513 8.348C8.91513 8.844 9.18713 9.248 9.57113 9.56C9.95513 9.872 10.4591 10.028 11.0831 10.028C11.5551 10.028 11.9831 9.928 12.3671 9.728C12.7511 9.52 13.0591 9.232 13.2911 8.864C13.5231 8.496 13.6391 8.08 13.6391 7.616H11.1071V6.512H14.9831V11H14.0711L13.7471 9.812H13.7231C13.4111 10.268 13.0391 10.608 12.6071 10.832C12.1751 11.056 11.6431 11.168 11.0111 11.168ZM19.9908 11.168C19.1908 11.168 18.4868 10.98 17.8788 10.604C17.2788 10.22 16.8108 9.692 16.4748 9.02C16.1468 8.34 15.9828 7.572 15.9828 6.716C15.9828 5.852 16.1468 5.084 16.4748 4.412C16.8108 3.732 17.2828 3.204 17.8908 2.828C18.4988 2.444 19.2028 2.252 20.0028 2.252C20.6988 2.252 21.3108 2.388 21.8388 2.66C22.3748 2.924 22.7988 3.292 23.1108 3.764C23.4228 4.228 23.6148 4.752 23.6868 5.336H22.3068C22.2428 5.008 22.1268 4.7 21.9588 4.412C21.7988 4.124 21.5548 3.884 21.2268 3.692C20.9068 3.492 20.4908 3.392 19.9788 3.392C19.3708 3.392 18.8708 3.544 18.4788 3.848C18.0948 4.152 17.8108 4.552 17.6268 5.048C17.4508 5.544 17.3628 6.096 17.3628 6.704C17.3628 7.312 17.4508 7.868 17.6268 8.372C17.8108 8.868 18.0948 9.268 18.4788 9.572C18.8708 9.876 19.3708 10.028 19.9788 10.028C20.4988 10.028 20.9268 9.928 21.2628 9.728C21.6068 9.52 21.8588 9.256 22.0188 8.936C22.1788 8.608 22.2748 8.256 22.3068 7.88H23.6868C23.6228 8.52 23.4348 9.092 23.1228 9.596C22.8108 10.092 22.3868 10.48 21.8508 10.76C21.3148 11.032 20.6948 11.168 19.9908 11.168ZM26.5887 3.56H23.8167V2.42H30.6927V3.56H27.9207V11H26.5887V3.56ZM35.9002 2.42H37.3282L40.5442 11H39.1042L38.3962 8.936H34.8082L34.1002 11H32.7082L35.9002 2.42ZM38.0242 7.82L36.6202 3.644H36.5962L35.2042 7.82H38.0242ZM44.326 11.168C43.886 11.168 43.506 11.084 43.186 10.916C42.874 10.748 42.626 10.524 42.442 10.244H42.13V5.6H42.442C42.634 5.344 42.886 5.132 43.198 4.964C43.518 4.788 43.894 4.7 44.326 4.7C44.846 4.7 45.314 4.832 45.73 5.096C46.146 5.352 46.474 5.728 46.714 6.224C46.954 6.712 47.074 7.284 47.074 7.94C47.074 8.596 46.954 9.168 46.714 9.656C46.474 10.144 46.146 10.52 45.73 10.784C45.314 11.04 44.846 11.168 44.326 11.168ZM41.242 4.88H42.418V13.124H41.242V4.88ZM44.134 10.196C44.502 10.196 44.814 10.096 45.07 9.896C45.334 9.688 45.526 9.412 45.646 9.068C45.774 8.724 45.838 8.348 45.838 7.94C45.838 7.524 45.774 7.144 45.646 6.8C45.526 6.456 45.334 6.184 45.07 5.984C44.814 5.784 44.502 5.684 44.134 5.684C43.782 5.684 43.478 5.776 43.222 5.96C42.966 6.136 42.77 6.396 42.634 6.74C42.498 7.076 42.43 7.476 42.43 7.94C42.43 8.396 42.498 8.796 42.634 9.14C42.77 9.476 42.966 9.736 43.222 9.92C43.478 10.104 43.782 10.196 44.134 10.196ZM51.1698 11.168C50.7298 11.168 50.3498 11.084 50.0298 10.916C49.7178 10.748 49.4698 10.524 49.2858 10.244H48.9738V5.6H49.2858C49.4778 5.344 49.7298 5.132 50.0418 4.964C50.3618 4.788 50.7378 4.7 51.1698 4.7C51.6898 4.7 52.1578 4.832 52.5738 5.096C52.9898 5.352 53.3178 5.728 53.5578 6.224C53.7978 6.712 53.9178 7.284 53.9178 7.94C53.9178 8.596 53.7978 9.168 53.5578 9.656C53.3178 10.144 52.9898 10.52 52.5738 10.784C52.1578 11.04 51.6898 11.168 51.1698 11.168ZM48.0858 4.88H49.2618V13.124H48.0858V4.88ZM50.9778 10.196C51.3458 10.196 51.6578 10.096 51.9138 9.896C52.1778 9.688 52.3698 9.412 52.4898 9.068C52.6178 8.724 52.6818 8.348 52.6818 7.94C52.6818 7.524 52.6178 7.144 52.4898 6.8C52.3698 6.456 52.1778 6.184 51.9138 5.984C51.6578 5.784 51.3458 5.684 50.9778 5.684C50.6258 5.684 50.3218 5.776 50.0658 5.96C49.8098 6.136 49.6138 6.396 49.4778 6.74C49.3418 7.076 49.2738 7.476 49.2738 7.94C49.2738 8.396 49.3418 8.796 49.4778 9.14C49.6138 9.476 49.8098 9.736 50.0658 9.92C50.3218 10.104 50.6258 10.196 50.9778 10.196Z" fill="#4E535B"/>
</svg>
