<svg width="16" height="16" viewBox="0 0 16 16" fill="none" xmlns="http://www.w3.org/2000/svg">
<g clip-path="url(#clip0_17342_1879)">
<rect width="16" height="16" rx="3.35938" fill="#FFE18C"/>
<g filter="url(#filter0_i_17342_1879)">
<path d="M19.7688 16.4558L23.8598 7.86351C24.6865 6.12707 24.2316 4.05111 22.7545 2.81952L19.5671 0.162024C19.1422 -0.19225 18.6516 -0.459313 18.1234 -0.623903L13.3631 -2.1073C11.7328 -2.61534 9.95704 -2.08836 8.86776 -0.773237L3.8269 5.31277C2.76025 6.60059 2.55676 8.39756 3.30843 9.89128L6.18477 15.6071C6.7964 16.8226 7.95768 17.6675 9.30234 17.8755L15.3236 18.8068C17.162 19.0911 18.9691 18.1354 19.7688 16.4558Z" fill="white"/>
</g>
<path d="M11.02 14.9709C12.1896 15.5639 15.4324 15.7384 17.8761 15.6845C18.5875 15.6688 18.9257 14.8426 18.4589 14.3055L13.3382 8.56737C13.3382 8.56737 13.574 8.77444 12.8844 7.09354C12.1948 5.41264 11.3148 3.81187 9.74274 4.29586C7.58137 4.96127 8.62109 7.07794 8.42388 9.93948C8.25491 12.3912 9.44974 14.1748 11.02 14.9709Z" fill="white" stroke="black" stroke-width="0.363636" stroke-linecap="round" stroke-linejoin="round"/>
<path d="M10.6087 8.13242L10.1529 7.29657C10.0993 7.19835 10.1463 7.07552 10.2518 7.03815L10.5353 6.93766C10.6408 6.90029 10.7546 6.96611 10.7749 7.07613L10.9471 8.01247C10.9845 8.21578 10.7076 8.3139 10.6087 8.13242Z" fill="black"/>
<path d="M15.8105 11.5889C16.3276 12.835 18.1335 13.7347 19.695 13.8908" stroke="black" stroke-width="0.561403" stroke-linecap="round"/>
<path d="M8.70051 14.3148C7.72817 12.8113 7.89241 11.2142 8.45899 9.2111C8.34569 9.89131 7.92631 11.3973 8.70051 12.794C9.66826 14.5399 11.4703 15.5443 15.197 15.763C13.7281 15.9506 9.63713 15.7631 8.70051 14.3148Z" fill="black" stroke="black" stroke-width="0.363636"/>
<path d="M11.4823 6.31179C11.5737 6.60872 11.6478 6.84943 11.4523 6.90962C11.2568 6.96981 11.1827 6.7291 11.0913 6.43217C10.9999 6.13524 10.9258 5.89453 11.1213 5.83434C11.3168 5.77415 11.3909 6.01486 11.4823 6.31179Z" fill="black" stroke="black" stroke-width="0.363636"/>
<path d="M9.51356 6.91726C9.60497 7.21419 9.67908 7.4549 9.48357 7.51509C9.28807 7.57528 9.21396 7.33457 9.12255 7.03764C9.03114 6.74071 8.95703 6.5 9.15254 6.43981C9.34804 6.37962 9.42215 6.62033 9.51356 6.91726Z" fill="black" stroke="black" stroke-width="0.363636"/>
<path d="M19.5499 11.4253L13.601 8.5114C13.4449 8.43496 13.2579 8.51748 13.2234 8.68779C13.0472 9.55794 12.976 11.2343 14.0735 12.9659C15.0776 14.55 17.4388 14.4541 18.4939 14.2082C18.707 14.1585 19.0052 14.078 19.3453 13.9812C20.5617 13.6349 20.6857 11.9816 19.5499 11.4253Z" fill="white" stroke="black" stroke-width="0.363636"/>
<path d="M15.1644 14.5707C14.1908 13.9238 13.6499 12.5629 13.5011 11.9633C14.212 13.5731 14.6351 13.5504 15.6934 14.1927C16.54 14.7066 17.8451 14.4267 18.3918 14.2225L18.6413 14.6836C17.888 14.9155 16.138 15.2176 15.1644 14.5707Z" fill="black" stroke="black" stroke-width="0.280702"/>
</g>
<defs>
<filter id="filter0_i_17342_1879" x="2.85938" y="-2.29688" width="21.4102" height="21.1523" filterUnits="userSpaceOnUse" color-interpolation-filters="sRGB">
<feFlood flood-opacity="0" result="BackgroundImageFix"/>
<feBlend mode="normal" in="SourceGraphic" in2="BackgroundImageFix" result="shape"/>
<feColorMatrix in="SourceAlpha" type="matrix" values="0 0 0 0 0 0 0 0 0 0 0 0 0 0 0 0 0 0 127 0" result="hardAlpha"/>
<feOffset dx="0.561404" dy="1.12281"/>
<feComposite in2="hardAlpha" operator="arithmetic" k2="-1" k3="1"/>
<feColorMatrix type="matrix" values="0 0 0 0 1 0 0 0 0 0.788235 0 0 0 0 0.203922 0 0 0 1 0"/>
<feBlend mode="normal" in2="shape" result="effect1_innerShadow_17342_1879"/>
</filter>
<clipPath id="clip0_17342_1879">
<rect width="16" height="16" rx="3.35938" fill="white"/>
</clipPath>
</defs>
</svg>
